<?xml version="1.0" encoding="UTF-8"?>
<!DOCTYPE svg PUBLIC "-//W3C//DTD SVG 1.1//EN" "http://www.w3.org/Graphics/SVG/1.1/DTD/svg11.dtd">
<svg xmlns="http://www.w3.org/2000/svg" version="1.1" width="300px" height="300px" style="shape-rendering:geometricPrecision; text-rendering:geometricPrecision; image-rendering:optimizeQuality; fill-rule:evenodd; clip-rule:evenodd" xmlns:xlink="http://www.w3.org/1999/xlink">
<g><path style="opacity:0.996" fill="#8f8f8f" d="M 182.5,217.5 C 181.094,217.973 180.427,218.973 180.5,220.5C 179.094,220.973 178.427,221.973 178.5,223.5C 177.167,225.5 175.5,227.167 173.5,228.5C 171.973,228.427 170.973,229.094 170.5,230.5C 168.973,230.427 167.973,231.094 167.5,232.5C 155.5,239.167 143.5,239.167 131.5,232.5C 131.027,231.094 130.027,230.427 128.5,230.5C 128.027,229.094 127.027,228.427 125.5,228.5C 123.5,227.167 121.833,225.5 120.5,223.5C 120.573,221.973 119.906,220.973 118.5,220.5C 118.573,218.973 117.906,217.973 116.5,217.5C 114.135,213.576 112.635,209.243 112,204.5C 111.333,174.833 111.333,145.167 112,115.5C 113.167,114.333 114.333,113.167 115.5,112C 120.5,111.333 125.5,111.333 130.5,112C 132.049,113.214 133.215,114.714 134,116.5C 134.023,146.561 134.69,176.561 136,206.5C 142.392,215.198 150.225,216.698 159.5,211C 161.43,208.742 162.93,206.242 164,203.5C 164.667,156.167 164.667,108.833 164,61.5C 163.495,59.4817 162.995,57.4817 162.5,55.5C 162.539,52.911 161.539,50.911 159.5,49.5C 159.573,47.9731 158.906,46.9731 157.5,46.5C 155.5,45.1667 153.833,43.5 152.5,41.5C 152.027,40.0937 151.027,39.427 149.5,39.5C 148.089,37.461 146.089,36.461 143.5,36.5C 133.231,33.3764 123.231,34.0431 113.5,38.5C 111.973,38.427 110.973,39.0937 110.5,40.5C 107.167,41.8333 104.833,44.1667 103.5,47.5C 103.068,48.7095 102.401,49.7095 101.5,50.5C 99.461,51.911 98.461,53.911 98.5,56.5C 98.067,59.1656 97.567,61.8323 97,64.5C 96.3333,115.167 96.3333,165.833 97,216.5C 100.441,240.273 113.608,255.773 136.5,263C 164.656,268.069 185.156,257.903 198,232.5C 199.961,227.323 201.294,221.99 202,216.5C 202.333,182.5 202.667,148.5 203,114.5C 203.903,113.299 205.069,112.465 206.5,112C 211.167,111.333 215.833,111.333 220.5,112C 221.931,112.465 223.097,113.299 224,114.5C 224.667,150.833 224.667,187.167 224,223.5C 223.594,226.742 222.761,229.742 221.5,232.5C 220.262,234.214 219.595,236.214 219.5,238.5C 218.624,242.582 216.957,246.249 214.5,249.5C 213.094,249.973 212.427,250.973 212.5,252.5C 211.094,252.973 210.427,253.973 210.5,255.5C 208.738,256.262 207.738,257.596 207.5,259.5C 207.5,260.167 207.167,260.5 206.5,260.5C 203.5,262.833 200.833,265.5 198.5,268.5C 198.167,269.5 197.5,270.167 196.5,270.5C 194.973,270.427 193.973,271.094 193.5,272.5C 193.5,273.167 193.167,273.5 192.5,273.5C 190.973,273.427 189.973,274.094 189.5,275.5C 189.158,276.338 188.492,276.672 187.5,276.5C 183.849,277.659 180.515,279.326 177.5,281.5C 158.833,289.5 140.167,289.5 121.5,281.5C 118.485,279.326 115.151,277.659 111.5,276.5C 110.508,276.672 109.842,276.338 109.5,275.5C 109.027,274.094 108.027,273.427 106.5,273.5C 105.833,273.5 105.5,273.167 105.5,272.5C 105.027,271.094 104.027,270.427 102.5,270.5C 101.5,270.167 100.833,269.5 100.5,268.5C 98.1667,265.5 95.5,262.833 92.5,260.5C 91.8333,260.5 91.5,260.167 91.5,259.5C 91.2624,257.596 90.2624,256.262 88.5,255.5C 88.573,253.973 87.9063,252.973 86.5,252.5C 86.573,250.973 85.9063,249.973 84.5,249.5C 82.0431,246.249 80.3764,242.582 79.5,238.5C 79.405,236.214 78.7384,234.214 77.5,232.5C 76.2395,229.742 75.4061,226.742 75,223.5C 74.0204,166.796 74.3538,110.13 76,53.5C 87.339,21.7358 109.839,8.23583 143.5,13C 168.197,20.0299 182.697,36.1966 187,61.5C 187.667,109.167 187.667,156.833 187,204.5C 186.365,209.243 184.865,213.576 182.5,217.5 Z"/></g>
<g><path style="opacity:0.471" fill="#8e8f8e" d="M 143.5,36.5 C 146.089,36.461 148.089,37.461 149.5,39.5C 147.181,39.0075 145.181,38.0075 143.5,36.5 Z"/></g>
<g><path style="opacity:0.486" fill="#8e8f8e" d="M 113.5,38.5 C 113.027,39.9063 112.027,40.573 110.5,40.5C 110.973,39.0937 111.973,38.427 113.5,38.5 Z"/></g>
<g><path style="opacity:0.502" fill="#8e8f8e" d="M 149.5,39.5 C 151.027,39.427 152.027,40.0937 152.5,41.5C 150.973,41.573 149.973,40.9063 149.5,39.5 Z"/></g>
<g><path style="opacity:0.507" fill="#8e8f8e" d="M 110.5,40.5 C 108.5,43.1667 106.167,45.5 103.5,47.5C 104.833,44.1667 107.167,41.8333 110.5,40.5 Z"/></g>
<g><path style="opacity:0.502" fill="#8e8f8e" d="M 157.5,46.5 C 158.906,46.9731 159.573,47.9731 159.5,49.5C 158.094,49.0269 157.427,48.0269 157.5,46.5 Z"/></g>
<g><path style="opacity:0.478" fill="#8e8f8e" d="M 159.5,49.5 C 161.539,50.911 162.539,52.911 162.5,55.5C 160.992,53.8185 159.992,51.8185 159.5,49.5 Z"/></g>
<g><path style="opacity:0.463" fill="#8e8f8e" d="M 101.5,50.5 C 101.008,52.8185 100.008,54.8185 98.5,56.5C 98.461,53.911 99.461,51.911 101.5,50.5 Z"/></g>
<g><path style="opacity:0.486" fill="#8e8f8e" d="M 116.5,217.5 C 117.906,217.973 118.573,218.973 118.5,220.5C 117.094,220.027 116.427,219.027 116.5,217.5 Z"/></g>
<g><path style="opacity:0.486" fill="#8e8f8e" d="M 182.5,217.5 C 182.573,219.027 181.906,220.027 180.5,220.5C 180.427,218.973 181.094,217.973 182.5,217.5 Z"/></g>
<g><path style="opacity:0.455" fill="#8e8f8e" d="M 118.5,220.5 C 119.906,220.973 120.573,221.973 120.5,223.5C 119.094,223.027 118.427,222.027 118.5,220.5 Z"/></g>
<g><path style="opacity:0.455" fill="#8e8f8e" d="M 180.5,220.5 C 180.573,222.027 179.906,223.027 178.5,223.5C 178.427,221.973 179.094,220.973 180.5,220.5 Z"/></g>
<g><path style="opacity:0.455" fill="#8e8f8e" d="M 125.5,228.5 C 127.027,228.427 128.027,229.094 128.5,230.5C 126.973,230.573 125.973,229.906 125.5,228.5 Z"/></g>
<g><path style="opacity:0.455" fill="#8e8f8e" d="M 173.5,228.5 C 173.027,229.906 172.027,230.573 170.5,230.5C 170.973,229.094 171.973,228.427 173.5,228.5 Z"/></g>
<g><path style="opacity:0.486" fill="#8e8f8e" d="M 128.5,230.5 C 130.027,230.427 131.027,231.094 131.5,232.5C 129.973,232.573 128.973,231.906 128.5,230.5 Z"/></g>
<g><path style="opacity:0.486" fill="#8e8f8e" d="M 170.5,230.5 C 170.027,231.906 169.027,232.573 167.5,232.5C 167.973,231.094 168.973,230.427 170.5,230.5 Z"/></g>
<g><path style="opacity:0.565" fill="#8e8f8e" d="M 77.5,232.5 C 78.7384,234.214 79.405,236.214 79.5,238.5C 77.9261,236.898 77.2594,234.898 77.5,232.5 Z"/></g>
<g><path style="opacity:0.565" fill="#8e8f8e" d="M 221.5,232.5 C 221.741,234.898 221.074,236.898 219.5,238.5C 219.595,236.214 220.262,234.214 221.5,232.5 Z"/></g>
<g><path style="opacity:0.486" fill="#8e8f8e" d="M 84.5,249.5 C 85.9063,249.973 86.573,250.973 86.5,252.5C 85.0937,252.027 84.427,251.027 84.5,249.5 Z"/></g>
<g><path style="opacity:0.486" fill="#8e8f8e" d="M 214.5,249.5 C 214.573,251.027 213.906,252.027 212.5,252.5C 212.427,250.973 213.094,249.973 214.5,249.5 Z"/></g>
<g><path style="opacity:0.565" fill="#8e8f8e" d="M 86.5,252.5 C 87.9063,252.973 88.573,253.973 88.5,255.5C 87.0937,255.027 86.427,254.027 86.5,252.5 Z"/></g>
<g><path style="opacity:0.549" fill="#8e8f8e" d="M 212.5,252.5 C 212.573,254.027 211.906,255.027 210.5,255.5C 210.427,253.973 211.094,252.973 212.5,252.5 Z"/></g>
<g><path style="opacity:0.502" fill="#8e8f8e" d="M 88.5,255.5 C 90.2624,256.262 91.2624,257.596 91.5,259.5C 89.7376,258.738 88.7376,257.404 88.5,255.5 Z"/></g>
<g><path style="opacity:0.502" fill="#8e8f8e" d="M 210.5,255.5 C 210.262,257.404 209.262,258.738 207.5,259.5C 207.738,257.596 208.738,256.262 210.5,255.5 Z"/></g>
<g><path style="opacity:0.473" fill="#8e8f8e" d="M 92.5,260.5 C 95.5,262.833 98.1667,265.5 100.5,268.5C 96.8333,266.833 94.1667,264.167 92.5,260.5 Z"/></g>
<g><path style="opacity:0.468" fill="#8e8f8e" d="M 206.5,260.5 C 204.833,264.167 202.167,266.833 198.5,268.5C 200.833,265.5 203.5,262.833 206.5,260.5 Z"/></g>
<g><path style="opacity:0.502" fill="#8e8f8e" d="M 102.5,270.5 C 104.027,270.427 105.027,271.094 105.5,272.5C 103.973,272.573 102.973,271.906 102.5,270.5 Z"/></g>
<g><path style="opacity:0.502" fill="#8e8f8e" d="M 196.5,270.5 C 196.027,271.906 195.027,272.573 193.5,272.5C 193.973,271.094 194.973,270.427 196.5,270.5 Z"/></g>
<g><path style="opacity:0.455" fill="#8e8f8e" d="M 106.5,273.5 C 108.027,273.427 109.027,274.094 109.5,275.5C 107.973,275.573 106.973,274.906 106.5,273.5 Z"/></g>
<g><path style="opacity:0.439" fill="#8e8f8e" d="M 192.5,273.5 C 192.027,274.906 191.027,275.573 189.5,275.5C 189.973,274.094 190.973,273.427 192.5,273.5 Z"/></g>
<g><path style="opacity:0.524" fill="#8e8f8e" d="M 111.5,276.5 C 115.151,277.659 118.485,279.326 121.5,281.5C 117.58,280.873 114.247,279.207 111.5,276.5 Z"/></g>
<g><path style="opacity:0.52" fill="#8e8f8e" d="M 187.5,276.5 C 184.753,279.207 181.42,280.873 177.5,281.5C 180.515,279.326 183.849,277.659 187.5,276.5 Z"/></g>
</svg>
