<?xml version="1.0" encoding="UTF-8"?>
<!DOCTYPE svg PUBLIC "-//W3C//DTD SVG 1.1//EN" "http://www.w3.org/Graphics/SVG/1.1/DTD/svg11.dtd">
<svg xmlns="http://www.w3.org/2000/svg" version="1.1" width="300px" height="300px" style="shape-rendering:geometricPrecision; text-rendering:geometricPrecision; image-rendering:optimizeQuality; fill-rule:evenodd; clip-rule:evenodd" xmlns:xlink="http://www.w3.org/1999/xlink">
<g><path style="opacity:0.965" fill="#2c2c2c" d="M 124.5,11.5 C 159.028,11.1675 179.861,27.8342 187,61.5C 187.667,109.167 187.667,156.833 187,204.5C 182.087,227.411 167.921,238.244 144.5,237C 126.333,233.5 115.5,222.667 112,204.5C 111.333,174.833 111.333,145.167 112,115.5C 113.167,114.333 114.333,113.167 115.5,112C 120.5,111.333 125.5,111.333 130.5,112C 132.049,113.214 133.215,114.714 134,116.5C 134.023,146.561 134.69,176.561 136,206.5C 142.392,215.198 150.225,216.698 159.5,211C 161.43,208.742 162.93,206.242 164,203.5C 164.667,156.167 164.667,108.833 164,61.5C 157.893,41.5217 144.393,32.6883 123.5,35C 108.698,39.4686 99.8649,49.3019 97,64.5C 96.3333,115.167 96.3333,165.833 97,216.5C 100.441,240.273 113.608,255.773 136.5,263C 164.656,268.069 185.156,257.903 198,232.5C 199.961,227.323 201.294,221.99 202,216.5C 202.333,182.5 202.667,148.5 203,114.5C 206.001,112.022 209.501,111.022 213.5,111.5C 217.499,111.022 220.999,112.022 224,114.5C 224.667,150.833 224.667,187.167 224,223.5C 216.479,260.021 194.313,281.188 157.5,287C 119.085,288.719 92.5846,271.886 78,236.5C 76.8423,232.203 75.8423,227.869 75,223.5C 74.0204,166.796 74.3538,110.13 76,53.5C 83.8463,29.8355 100.013,15.8355 124.5,11.5 Z"/></g>
</svg>
