<?xml version="1.0" encoding="UTF-8"?>
<!DOCTYPE svg PUBLIC "-//W3C//DTD SVG 1.1//EN" "http://www.w3.org/Graphics/SVG/1.1/DTD/svg11.dtd">
<svg xmlns="http://www.w3.org/2000/svg" version="1.1" width="300px" height="300px" style="shape-rendering:geometricPrecision; text-rendering:geometricPrecision; image-rendering:optimizeQuality; fill-rule:evenodd; clip-rule:evenodd" xmlns:xlink="http://www.w3.org/1999/xlink">
<g><path style="opacity:0.964" fill="#2c2c2c" d="M 134.5,24.5 C 189.829,20.7439 231.663,42.4105 260,89.5C 279.333,129.5 279.333,169.5 260,209.5C 231.685,256.744 189.852,278.244 134.5,274C 92.1116,267.916 60.2782,246.416 39,209.5C 20.8154,171.961 19.8154,133.961 36,95.5C 56.926,55.2893 89.7594,31.6226 134.5,24.5 Z M 144.5,49.5 C 195.794,51.0474 229.628,76.0474 246,124.5C 254.978,168.909 241.478,204.743 205.5,232C 164.143,256.542 124.143,254.542 85.5,226C 51.5027,194.354 42.0027,156.521 57,112.5C 74.332,74.9934 103.499,53.9934 144.5,49.5 Z"/></g>
<g><path style="opacity:0.951" fill="#2c2c2c" d="M 100.5,105.5 C 118.161,104.66 125.995,112.994 124,130.5C 117.871,142.879 108.371,146.379 95.5,141C 83.5,130 83.5,119 95.5,108C 97.3146,107.243 98.9812,106.41 100.5,105.5 Z"/></g>
<g><path style="opacity:0.951" fill="#2c2c2c" d="M 188.5,105.5 C 200.639,103.817 208.473,108.817 212,120.5C 213.26,131.482 208.76,138.982 198.5,143C 180.819,144.319 172.986,136.152 175,118.5C 177.442,111.888 181.942,107.555 188.5,105.5 Z"/></g>
<g><path style="opacity:0.983" fill="#2c2c2c" d="M 87.5,174.5 C 128.839,174.167 170.172,174.5 211.5,175.5C 211.987,176.446 212.32,177.446 212.5,178.5C 201.657,207.754 180.657,223.087 149.5,224.5C 119.182,223.354 98.3482,208.687 87,180.5C 86.5099,178.455 86.6765,176.455 87.5,174.5 Z"/></g>
</svg>
