<?xml version="1.0" encoding="UTF-8"?>
<!DOCTYPE svg PUBLIC "-//W3C//DTD SVG 1.1//EN" "http://www.w3.org/Graphics/SVG/1.1/DTD/svg11.dtd">
<svg xmlns="http://www.w3.org/2000/svg" version="1.1" width="300px" height="300px" style="shape-rendering:geometricPrecision; text-rendering:geometricPrecision; image-rendering:optimizeQuality; fill-rule:evenodd; clip-rule:evenodd" xmlns:xlink="http://www.w3.org/1999/xlink">
<g><path style="opacity:0.994" fill="#8f8f8f" d="M 263.5,200.5 C 261.326,203.515 259.659,206.849 258.5,210.5C 258.672,211.492 258.338,212.158 257.5,212.5C 256.094,212.973 255.427,213.973 255.5,215.5C 255.672,216.492 255.338,217.158 254.5,217.5C 253.094,217.973 252.427,218.973 252.5,220.5C 252.5,221.167 252.167,221.5 251.5,221.5C 250.094,221.973 249.427,222.973 249.5,224.5C 249.5,225.167 249.167,225.5 248.5,225.5C 247.094,225.973 246.427,226.973 246.5,228.5C 246.167,229.5 245.5,230.167 244.5,230.5C 239.5,234.833 234.833,239.5 230.5,244.5C 230.167,245.5 229.5,246.167 228.5,246.5C 226.973,246.427 225.973,247.094 225.5,248.5C 225.5,249.167 225.167,249.5 224.5,249.5C 222.973,249.427 221.973,250.094 221.5,251.5C 221.5,252.167 221.167,252.5 220.5,252.5C 218.973,252.427 217.973,253.094 217.5,254.5C 217.158,255.338 216.492,255.672 215.5,255.5C 213.973,255.427 212.973,256.094 212.5,257.5C 212.158,258.338 211.492,258.672 210.5,258.5C 206.849,259.659 203.515,261.326 200.5,263.5C 184.529,271.363 167.529,275.029 149.5,274.5C 131.471,275.029 114.471,271.363 98.5,263.5C 95.4846,261.326 92.1513,259.659 88.5,258.5C 87.5084,258.672 86.8417,258.338 86.5,257.5C 86.0269,256.094 85.0269,255.427 83.5,255.5C 82.5084,255.672 81.8417,255.338 81.5,254.5C 81.0269,253.094 80.0269,252.427 78.5,252.5C 77.8333,252.5 77.5,252.167 77.5,251.5C 77.0269,250.094 76.0269,249.427 74.5,249.5C 73.8333,249.5 73.5,249.167 73.5,248.5C 73.0269,247.094 72.0269,246.427 70.5,246.5C 69.5,246.167 68.8333,245.5 68.5,244.5C 66.7607,241.757 64.4274,239.757 61.5,238.5C 60.8333,238.5 60.5,238.167 60.5,237.5C 59.2427,234.573 57.2427,232.239 54.5,230.5C 53.5,230.167 52.8333,229.5 52.5,228.5C 52.573,226.973 51.9063,225.973 50.5,225.5C 49.8333,225.5 49.5,225.167 49.5,224.5C 49.573,222.973 48.9063,221.973 47.5,221.5C 46.8333,221.5 46.5,221.167 46.5,220.5C 46.573,218.973 45.9063,217.973 44.5,217.5C 43.6618,217.158 43.3284,216.492 43.5,215.5C 43.573,213.973 42.9063,212.973 41.5,212.5C 40.6618,212.158 40.3284,211.492 40.5,210.5C 39.3411,206.849 37.6744,203.515 35.5,200.5C 30.8668,191.432 27.7002,181.765 26,171.5C 18.6512,113.372 39.8179,69.2054 89.5,39C 140.612,14.949 188.279,20.2823 232.5,55C 269.872,90.7996 282.372,133.966 270,184.5C 268.491,190.214 266.325,195.548 263.5,200.5 Z M 188.5,57.5 C 191.515,59.6744 194.849,61.3411 198.5,62.5C 198.842,63.3382 199.508,63.6716 200.5,63.5C 200.973,64.9063 201.973,65.573 203.5,65.5C 204.29,66.4013 205.29,67.0679 206.5,67.5C 206.973,68.9063 207.973,69.573 209.5,69.5C 209.5,70.1667 209.833,70.5 210.5,70.5C 210.973,71.9063 211.973,72.573 213.5,72.5C 214.167,73.8333 215.167,74.8333 216.5,75.5C 218.5,78.1667 220.833,80.5 223.5,82.5C 224.167,83.8333 225.167,84.8333 226.5,85.5C 226.427,87.0269 227.094,88.0269 228.5,88.5C 228.5,89.1667 228.833,89.5 229.5,89.5C 229.427,91.0269 230.094,92.0269 231.5,92.5C 231.932,93.7095 232.599,94.7095 233.5,95.5C 233.427,97.0269 234.094,98.0269 235.5,98.5C 235.328,99.4916 235.662,100.158 236.5,100.5C 237.659,104.151 239.326,107.485 241.5,110.5C 257.065,155.074 247.731,193.574 213.5,226C 170.828,257.332 128.161,257.332 85.5,226C 51.058,193.63 41.7246,155.13 57.5,110.5C 58.9313,109.22 59.5979,107.553 59.5,105.5C 61.2503,104.341 62.2503,102.674 62.5,100.5C 63.3382,100.158 63.6716,99.4916 63.5,98.5C 64.9063,98.0269 65.573,97.0269 65.5,95.5C 66.4013,94.7095 67.0679,93.7095 67.5,92.5C 68.9063,92.0269 69.573,91.0269 69.5,89.5C 70.1667,89.5 70.5,89.1667 70.5,88.5C 71.9063,88.0269 72.573,87.0269 72.5,85.5C 73.8333,84.8333 74.8333,83.8333 75.5,82.5C 78.5,80.1667 81.1667,77.5 83.5,74.5C 84.5,74.1667 85.1667,73.5 85.5,72.5C 87.0269,72.573 88.0269,71.9063 88.5,70.5C 89.1667,70.5 89.5,70.1667 89.5,69.5C 91.0269,69.573 92.0269,68.9063 92.5,67.5C 93.7095,67.0679 94.7095,66.4013 95.5,65.5C 97.0269,65.573 98.0269,64.9063 98.5,63.5C 99.4916,63.6716 100.158,63.3382 100.5,62.5C 102.674,62.2503 104.341,61.2503 105.5,59.5C 107.553,59.5979 109.22,58.9313 110.5,57.5C 131.367,49.3132 152.7,47.8132 174.5,53C 179.154,54.607 183.82,56.107 188.5,57.5 Z"/></g>
<g><path style="opacity:0.512" fill="#8e8f8e" d="M 110.5,57.5 C 109.22,58.9313 107.553,59.5979 105.5,59.5C 106.78,58.0687 108.447,57.4021 110.5,57.5 Z"/></g>
<g><path style="opacity:0.48" fill="#8e8f8e" d="M 188.5,57.5 C 192.42,58.1266 195.753,59.7933 198.5,62.5C 194.849,61.3411 191.515,59.6744 188.5,57.5 Z"/></g>
<g><path style="opacity:0.502" fill="#8e8f8e" d="M 105.5,59.5 C 104.341,61.2503 102.674,62.2503 100.5,62.5C 101.659,60.7497 103.326,59.7497 105.5,59.5 Z"/></g>
<g><path style="opacity:0.424" fill="#8e8f8e" d="M 98.5,63.5 C 98.0269,64.9063 97.0269,65.573 95.5,65.5C 95.9731,64.0937 96.9731,63.427 98.5,63.5 Z"/></g>
<g><path style="opacity:0.424" fill="#8e8f8e" d="M 200.5,63.5 C 202.027,63.427 203.027,64.0937 203.5,65.5C 201.973,65.573 200.973,64.9063 200.5,63.5 Z"/></g>
<g><path style="opacity:0.439" fill="#8e8f8e" d="M 92.5,67.5 C 92.0269,68.9063 91.0269,69.573 89.5,69.5C 89.9731,68.0937 90.9731,67.427 92.5,67.5 Z"/></g>
<g><path style="opacity:0.439" fill="#8e8f8e" d="M 206.5,67.5 C 208.027,67.427 209.027,68.0937 209.5,69.5C 207.973,69.573 206.973,68.9063 206.5,67.5 Z"/></g>
<g><path style="opacity:0.471" fill="#8e8f8e" d="M 88.5,70.5 C 88.0269,71.9063 87.0269,72.573 85.5,72.5C 85.9731,71.0937 86.9731,70.427 88.5,70.5 Z"/></g>
<g><path style="opacity:0.471" fill="#8e8f8e" d="M 210.5,70.5 C 212.027,70.427 213.027,71.0937 213.5,72.5C 211.973,72.573 210.973,71.9063 210.5,70.5 Z"/></g>
<g><path style="opacity:0.552" fill="#8e8f8e" d="M 83.5,74.5 C 81.1667,77.5 78.5,80.1667 75.5,82.5C 77.1667,78.8333 79.8333,76.1667 83.5,74.5 Z"/></g>
<g><path style="opacity:0.536" fill="#8e8f8e" d="M 216.5,75.5 C 219.833,76.8333 222.167,79.1667 223.5,82.5C 220.833,80.5 218.5,78.1667 216.5,75.5 Z"/></g>
<g><path style="opacity:0.471" fill="#8e8f8e" d="M 72.5,85.5 C 72.573,87.0269 71.9063,88.0269 70.5,88.5C 70.427,86.9731 71.0937,85.9731 72.5,85.5 Z"/></g>
<g><path style="opacity:0.471" fill="#8e8f8e" d="M 226.5,85.5 C 227.906,85.9731 228.573,86.9731 228.5,88.5C 227.094,88.0269 226.427,87.0269 226.5,85.5 Z"/></g>
<g><path style="opacity:0.439" fill="#8e8f8e" d="M 69.5,89.5 C 69.573,91.0269 68.9063,92.0269 67.5,92.5C 67.427,90.9731 68.0937,89.9731 69.5,89.5 Z"/></g>
<g><path style="opacity:0.439" fill="#8e8f8e" d="M 229.5,89.5 C 230.906,89.9731 231.573,90.9731 231.5,92.5C 230.094,92.0269 229.427,91.0269 229.5,89.5 Z"/></g>
<g><path style="opacity:0.424" fill="#8e8f8e" d="M 65.5,95.5 C 65.573,97.0269 64.9063,98.0269 63.5,98.5C 63.427,96.9731 64.0937,95.9731 65.5,95.5 Z"/></g>
<g><path style="opacity:0.424" fill="#8e8f8e" d="M 233.5,95.5 C 234.906,95.9731 235.573,96.9731 235.5,98.5C 234.094,98.0269 233.427,97.0269 233.5,95.5 Z"/></g>
<g><path style="opacity:0.502" fill="#8e8f8e" d="M 62.5,100.5 C 62.2503,102.674 61.2503,104.341 59.5,105.5C 59.7497,103.326 60.7497,101.659 62.5,100.5 Z"/></g>
<g><path style="opacity:0.484" fill="#8e8f8e" d="M 236.5,100.5 C 239.207,103.247 240.873,106.58 241.5,110.5C 239.326,107.485 237.659,104.151 236.5,100.5 Z"/></g>
<g><path style="opacity:0.512" fill="#8e8f8e" d="M 59.5,105.5 C 59.5979,107.553 58.9313,109.22 57.5,110.5C 57.4021,108.447 58.0687,106.78 59.5,105.5 Z"/></g>
<g><path style="opacity:0.992" fill="#8f8f8f" d="M 121.5,134.5 C 119.167,136.167 117.167,138.167 115.5,140.5C 114.158,141.793 112.491,142.626 110.5,143C 106.973,143.808 103.64,143.641 100.5,142.5C 98.8185,140.992 96.8185,139.992 94.5,139.5C 83.6373,128.817 83.9706,118.317 95.5,108C 115.611,102.114 125.111,109.614 124,130.5C 123.392,132.066 122.558,133.4 121.5,134.5 Z"/></g>
<g><path style="opacity:0.992" fill="#8f8f8f" d="M 204.5,139.5 C 202.181,139.992 200.181,140.992 198.5,142.5C 195.36,143.641 192.027,143.808 188.5,143C 186.509,142.626 184.842,141.793 183.5,140.5C 181.833,138.167 179.833,136.167 177.5,134.5C 172.551,125.134 173.884,116.634 181.5,109C 195.923,101.805 206.09,105.639 212,120.5C 213.312,128.407 210.812,134.74 204.5,139.5 Z"/></g>
<g><path style="opacity:0.513" fill="#8e8f8e" d="M 121.5,134.5 C 120.5,137.5 118.5,139.5 115.5,140.5C 117.167,138.167 119.167,136.167 121.5,134.5 Z"/></g>
<g><path style="opacity:0.519" fill="#8e8f8e" d="M 177.5,134.5 C 179.833,136.167 181.833,138.167 183.5,140.5C 180.5,139.5 178.5,137.5 177.5,134.5 Z"/></g>
<g><path style="opacity:0.502" fill="#8e8f8e" d="M 94.5,139.5 C 96.8185,139.992 98.8185,140.992 100.5,142.5C 97.911,142.539 95.911,141.539 94.5,139.5 Z"/></g>
<g><path style="opacity:0.494" fill="#8e8f8e" d="M 204.5,139.5 C 203.089,141.539 201.089,142.539 198.5,142.5C 200.181,140.992 202.181,139.992 204.5,139.5 Z"/></g>
<g><path style="opacity:1" fill="#8f8f8f" d="M 211.5,180.5 C 210.069,181.78 209.402,183.447 209.5,185.5C 209.008,187.819 208.008,189.819 206.5,191.5C 205.094,191.973 204.427,192.973 204.5,194.5C 203.094,194.973 202.427,195.973 202.5,197.5C 200.738,198.262 199.738,199.596 199.5,201.5C 197.167,204.5 194.5,207.167 191.5,209.5C 189.973,209.427 188.973,210.094 188.5,211.5C 186.371,213.95 183.704,215.617 180.5,216.5C 178.847,216.66 177.514,217.326 176.5,218.5C 168.182,223.033 159.182,225.033 149.5,224.5C 139.806,225.031 130.806,223.031 122.5,218.5C 121.486,217.326 120.153,216.66 118.5,216.5C 116.847,216.34 115.514,215.674 114.5,214.5C 114.027,213.094 113.027,212.427 111.5,212.5C 110.833,212.5 110.5,212.167 110.5,211.5C 110.027,210.094 109.027,209.427 107.5,209.5C 104.5,207.167 101.833,204.5 99.5,201.5C 99.2624,199.596 98.2624,198.262 96.5,197.5C 96.573,195.973 95.9063,194.973 94.5,194.5C 94.573,192.973 93.9063,191.973 92.5,191.5C 90.9925,189.819 89.9925,187.819 89.5,185.5C 89.5979,183.447 88.9313,181.78 87.5,180.5C 86.2651,178.983 86.2651,177.316 87.5,175.5C 128.833,174.167 170.167,174.167 211.5,175.5C 212.735,177.316 212.735,178.983 211.5,180.5 Z"/></g>
<g><path style="opacity:0.512" fill="#8e8f8e" d="M 87.5,180.5 C 88.9313,181.78 89.5979,183.447 89.5,185.5C 88.0687,184.22 87.4021,182.553 87.5,180.5 Z"/></g>
<g><path style="opacity:0.502" fill="#8e8f8e" d="M 211.5,180.5 C 211.598,182.553 210.931,184.22 209.5,185.5C 209.402,183.447 210.069,181.78 211.5,180.5 Z"/></g>
<g><path style="opacity:0.518" fill="#8e8f8e" d="M 92.5,191.5 C 93.9063,191.973 94.573,192.973 94.5,194.5C 93.0937,194.027 92.427,193.027 92.5,191.5 Z"/></g>
<g><path style="opacity:0.518" fill="#8e8f8e" d="M 206.5,191.5 C 206.573,193.027 205.906,194.027 204.5,194.5C 204.427,192.973 205.094,191.973 206.5,191.5 Z"/></g>
<g><path style="opacity:0.565" fill="#8e8f8e" d="M 94.5,194.5 C 95.9063,194.973 96.573,195.973 96.5,197.5C 95.0937,197.027 94.427,196.027 94.5,194.5 Z"/></g>
<g><path style="opacity:0.549" fill="#8e8f8e" d="M 204.5,194.5 C 204.573,196.027 203.906,197.027 202.5,197.5C 202.427,195.973 203.094,194.973 204.5,194.5 Z"/></g>
<g><path style="opacity:0.512" fill="#8e8f8e" d="M 96.5,197.5 C 98.2624,198.262 99.2624,199.596 99.5,201.5C 97.7376,200.738 96.7376,199.404 96.5,197.5 Z"/></g>
<g><path style="opacity:0.492" fill="#8e8f8e" d="M 202.5,197.5 C 202.262,199.404 201.262,200.738 199.5,201.5C 199.738,199.596 200.738,198.262 202.5,197.5 Z"/></g>
<g><path style="opacity:0.515" fill="#8e8f8e" d="M 35.5,200.5 C 37.6744,203.515 39.3411,206.849 40.5,210.5C 37.7933,207.753 36.1266,204.42 35.5,200.5 Z"/></g>
<g><path style="opacity:0.515" fill="#8e8f8e" d="M 263.5,200.5 C 262.873,204.42 261.207,207.753 258.5,210.5C 259.659,206.849 261.326,203.515 263.5,200.5 Z"/></g>
<g><path style="opacity:0.486" fill="#8e8f8e" d="M 107.5,209.5 C 109.027,209.427 110.027,210.094 110.5,211.5C 108.973,211.573 107.973,210.906 107.5,209.5 Z"/></g>
<g><path style="opacity:0.471" fill="#8e8f8e" d="M 191.5,209.5 C 191.027,210.906 190.027,211.573 188.5,211.5C 188.973,210.094 189.973,209.427 191.5,209.5 Z"/></g>
<g><path style="opacity:0.565" fill="#8e8f8e" d="M 41.5,212.5 C 42.9063,212.973 43.573,213.973 43.5,215.5C 42.0937,215.027 41.427,214.027 41.5,212.5 Z"/></g>
<g><path style="opacity:0.424" fill="#8e8f8e" d="M 111.5,212.5 C 113.027,212.427 114.027,213.094 114.5,214.5C 112.973,214.573 111.973,213.906 111.5,212.5 Z"/></g>
<g><path style="opacity:0.549" fill="#8e8f8e" d="M 257.5,212.5 C 257.573,214.027 256.906,215.027 255.5,215.5C 255.427,213.973 256.094,212.973 257.5,212.5 Z"/></g>
<g><path style="opacity:0.577" fill="#8e8f8e" d="M 118.5,216.5 C 120.153,216.66 121.486,217.326 122.5,218.5C 120.62,218.771 119.287,218.104 118.5,216.5 Z"/></g>
<g><path style="opacity:0.565" fill="#8e8f8e" d="M 180.5,216.5 C 179.713,218.104 178.38,218.771 176.5,218.5C 177.514,217.326 178.847,216.66 180.5,216.5 Z"/></g>
<g><path style="opacity:0.439" fill="#8e8f8e" d="M 44.5,217.5 C 45.9063,217.973 46.573,218.973 46.5,220.5C 45.0937,220.027 44.427,219.027 44.5,217.5 Z"/></g>
<g><path style="opacity:0.408" fill="#8e8f8e" d="M 254.5,217.5 C 254.573,219.027 253.906,220.027 252.5,220.5C 252.427,218.973 253.094,217.973 254.5,217.5 Z"/></g>
<g><path style="opacity:0.565" fill="#8e8f8e" d="M 47.5,221.5 C 48.9063,221.973 49.573,222.973 49.5,224.5C 48.0937,224.027 47.427,223.027 47.5,221.5 Z"/></g>
<g><path style="opacity:0.565" fill="#8e8f8e" d="M 251.5,221.5 C 251.573,223.027 250.906,224.027 249.5,224.5C 249.427,222.973 250.094,221.973 251.5,221.5 Z"/></g>
<g><path style="opacity:0.533" fill="#8e8f8e" d="M 50.5,225.5 C 51.9063,225.973 52.573,226.973 52.5,228.5C 51.0937,228.027 50.427,227.027 50.5,225.5 Z"/></g>
<g><path style="opacity:0.533" fill="#8e8f8e" d="M 248.5,225.5 C 248.573,227.027 247.906,228.027 246.5,228.5C 246.427,226.973 247.094,225.973 248.5,225.5 Z"/></g>
<g><path style="opacity:0.518" fill="#8e8f8e" d="M 54.5,230.5 C 57.2427,232.239 59.2427,234.573 60.5,237.5C 57.7573,235.761 55.7573,233.427 54.5,230.5 Z"/></g>
<g><path style="opacity:0.539" fill="#8e8f8e" d="M 244.5,230.5 C 240.833,236.167 236.167,240.833 230.5,244.5C 234.833,239.5 239.5,234.833 244.5,230.5 Z"/></g>
<g><path style="opacity:0.518" fill="#8e8f8e" d="M 61.5,238.5 C 64.4274,239.757 66.7607,241.757 68.5,244.5C 65.5726,243.243 63.2393,241.243 61.5,238.5 Z"/></g>
<g><path style="opacity:0.533" fill="#8e8f8e" d="M 70.5,246.5 C 72.0269,246.427 73.0269,247.094 73.5,248.5C 71.9731,248.573 70.9731,247.906 70.5,246.5 Z"/></g>
<g><path style="opacity:0.533" fill="#8e8f8e" d="M 228.5,246.5 C 228.027,247.906 227.027,248.573 225.5,248.5C 225.973,247.094 226.973,246.427 228.5,246.5 Z"/></g>
<g><path style="opacity:0.565" fill="#8e8f8e" d="M 74.5,249.5 C 76.0269,249.427 77.0269,250.094 77.5,251.5C 75.9731,251.573 74.9731,250.906 74.5,249.5 Z"/></g>
<g><path style="opacity:0.565" fill="#8e8f8e" d="M 224.5,249.5 C 224.027,250.906 223.027,251.573 221.5,251.5C 221.973,250.094 222.973,249.427 224.5,249.5 Z"/></g>
<g><path style="opacity:0.424" fill="#8e8f8e" d="M 78.5,252.5 C 80.0269,252.427 81.0269,253.094 81.5,254.5C 79.9731,254.573 78.9731,253.906 78.5,252.5 Z"/></g>
<g><path style="opacity:0.408" fill="#8e8f8e" d="M 220.5,252.5 C 220.027,253.906 219.027,254.573 217.5,254.5C 217.973,253.094 218.973,252.427 220.5,252.5 Z"/></g>
<g><path style="opacity:0.565" fill="#8e8f8e" d="M 83.5,255.5 C 85.0269,255.427 86.0269,256.094 86.5,257.5C 84.9731,257.573 83.9731,256.906 83.5,255.5 Z"/></g>
<g><path style="opacity:0.549" fill="#8e8f8e" d="M 215.5,255.5 C 215.027,256.906 214.027,257.573 212.5,257.5C 212.973,256.094 213.973,255.427 215.5,255.5 Z"/></g>
<g><path style="opacity:0.515" fill="#8e8f8e" d="M 88.5,258.5 C 92.1513,259.659 95.4846,261.326 98.5,263.5C 94.5799,262.873 91.2466,261.207 88.5,258.5 Z"/></g>
<g><path style="opacity:0.515" fill="#8e8f8e" d="M 210.5,258.5 C 207.753,261.207 204.42,262.873 200.5,263.5C 203.515,261.326 206.849,259.659 210.5,258.5 Z"/></g>
</svg>
