<?xml version="1.0" encoding="UTF-8"?>
<!DOCTYPE svg PUBLIC "-//W3C//DTD SVG 1.1//EN" "http://www.w3.org/Graphics/SVG/1.1/DTD/svg11.dtd">
<svg xmlns="http://www.w3.org/2000/svg" version="1.1" width="300px" height="300px" style="shape-rendering:geometricPrecision; text-rendering:geometricPrecision; image-rendering:optimizeQuality; fill-rule:evenodd; clip-rule:evenodd" xmlns:xlink="http://www.w3.org/1999/xlink">
<g><path style="opacity:0.988" fill="#8f8f8f" d="M 132.5,122.5 C 132.5,123.5 132.5,124.5 132.5,125.5C 125.08,125.797 117.746,125.464 110.5,124.5C 108.515,121.202 106.515,117.869 104.5,114.5C 104.5,112.5 103.5,111.5 101.5,111.5C 88.7425,103.427 75.4092,102.427 61.5,108.5C 59.9731,108.427 58.9731,109.094 58.5,110.5C 57.1667,112.5 55.5,114.167 53.5,115.5C 52.0937,115.973 51.427,116.973 51.5,118.5C 50.0937,118.973 49.427,119.973 49.5,121.5C 49.6716,122.492 49.3382,123.158 48.5,123.5C 47.0687,124.78 46.4021,126.447 46.5,128.5C 41.7084,146.542 43.5418,163.876 52,180.5C 64.8948,195.425 80.3948,198.592 98.5,190C 104.901,185.695 109.235,179.861 111.5,172.5C 112.477,169.713 112.81,166.713 112.5,163.5C 102.833,163.5 93.1667,163.5 83.5,163.5C 82.8826,163.389 82.3826,163.056 82,162.5C 81.3333,157.5 81.3333,152.5 82,147.5C 82.5,147 83,146.5 83.5,146C 99.8333,145.333 116.167,145.333 132.5,146C 133.798,150.077 134.464,154.411 134.5,159C 135.138,167.62 133.805,175.787 130.5,183.5C 129.069,184.78 128.402,186.447 128.5,188.5C 127.094,188.973 126.427,189.973 126.5,191.5C 126.573,193.027 125.906,194.027 124.5,194.5C 123.094,194.973 122.427,195.973 122.5,197.5C 121.167,199.5 119.5,201.167 117.5,202.5C 115.596,202.738 114.262,203.738 113.5,205.5C 111.973,205.427 110.973,206.094 110.5,207.5C 96.1183,215.366 80.785,217.533 64.5,214C 59.3884,213.024 54.7217,211.191 50.5,208.5C 50.0269,207.094 49.0269,206.427 47.5,206.5C 45.9731,206.573 44.9731,205.906 44.5,204.5C 44.0269,203.094 43.0269,202.427 41.5,202.5C 39.1667,200.833 37.1667,198.833 35.5,196.5C 35.2624,194.596 34.2624,193.262 32.5,192.5C 32.573,190.973 31.9063,189.973 30.5,189.5C 23.1187,177.308 19.7854,163.975 20.5,149.5C 19.2925,124.754 28.6259,105.254 48.5,91C 70.5289,80.512 92.1956,81.1786 113.5,93C 124.002,100.175 130.335,110.008 132.5,122.5 Z"/></g>
<g><path style="opacity:0.984" fill="#909090" d="M 277.5,105.5 C 258.833,105.5 240.167,105.5 221.5,105.5C 221.172,117.678 221.505,129.678 222.5,141.5C 239.17,141.333 255.837,141.5 272.5,142C 273.473,147.407 273.807,152.907 273.5,158.5C 272.5,158.833 271.833,159.5 271.5,160.5C 255.167,160.5 238.833,160.5 222.5,160.5C 222.667,176.837 222.5,193.17 222,209.5C 221.5,210 221,210.5 220.5,211C 213.986,211.82 207.653,211.653 201.5,210.5C 200.506,169.572 200.173,128.572 200.5,87.5C 225.997,86.3366 251.663,86.1699 277.5,87C 278.826,93.2655 278.826,99.4322 277.5,105.5 Z"/></g>
<g><path style="opacity:1" fill="#8f908f" d="M 173.5,88.5 C 173.667,128.835 173.5,169.168 173,209.5C 166.667,210.833 160.333,210.833 154,209.5C 153.5,169.168 153.333,128.835 153.5,88.5C 160.167,87.1667 166.833,87.1667 173.5,88.5 Z"/></g>
<g><path style="opacity:0.497" fill="#8e8f8e" d="M 200.5,87.5 C 200.173,128.572 200.506,169.572 201.5,210.5C 200.167,190.344 199.5,169.844 199.5,149C 199.5,128.331 199.833,107.831 200.5,87.5 Z"/></g>
<g><path style="opacity:0.498" fill="#8e8f8e" d="M 153.5,88.5 C 153.333,128.835 153.5,169.168 154,209.5C 160.333,210.833 166.667,210.833 173,209.5C 173.5,169.168 173.667,128.835 173.5,88.5C 174.665,128.998 174.831,169.665 174,210.5C 167,211.833 160,211.833 153,210.5C 152.169,169.665 152.335,128.998 153.5,88.5 Z"/></g>
<g><path style="opacity:0.654" fill="#8e8f8e" d="M 277.5,105.5 C 259.341,106.497 241.008,106.83 222.5,106.5C 222.5,118.167 222.5,129.833 222.5,141.5C 221.505,129.678 221.172,117.678 221.5,105.5C 240.167,105.5 258.833,105.5 277.5,105.5 Z"/></g>
<g><path style="opacity:0.533" fill="#8e8f8e" d="M 61.5,108.5 C 61.0269,109.906 60.0269,110.573 58.5,110.5C 58.9731,109.094 59.9731,108.427 61.5,108.5 Z"/></g>
<g><path style="opacity:0.527" fill="#8e8f8e" d="M 101.5,111.5 C 103.5,111.5 104.5,112.5 104.5,114.5C 103.167,113.833 102.167,112.833 101.5,111.5 Z"/></g>
<g><path style="opacity:0.471" fill="#8e8f8e" d="M 53.5,115.5 C 53.573,117.027 52.9063,118.027 51.5,118.5C 51.427,116.973 52.0937,115.973 53.5,115.5 Z"/></g>
<g><path style="opacity:0.471" fill="#8e8f8e" d="M 51.5,118.5 C 51.573,120.027 50.9063,121.027 49.5,121.5C 49.427,119.973 50.0937,118.973 51.5,118.5 Z"/></g>
<g><path style="opacity:0.488" fill="#8e8f8e" d="M 132.5,122.5 C 133.434,123.568 133.768,124.901 133.5,126.5C 125.427,127.132 117.76,126.465 110.5,124.5C 117.746,125.464 125.08,125.797 132.5,125.5C 132.5,124.5 132.5,123.5 132.5,122.5 Z"/></g>
<g><path style="opacity:0.544" fill="#8e8f8e" d="M 48.5,123.5 C 48.5979,125.553 47.9313,127.22 46.5,128.5C 46.4021,126.447 47.0687,124.78 48.5,123.5 Z"/></g>
<g><path style="opacity:0.669" fill="#8e8f8e" d="M 273.5,158.5 C 273.5,159.833 272.833,160.5 271.5,160.5C 271.833,159.5 272.5,158.833 273.5,158.5 Z"/></g>
<g><path style="opacity:0.278" fill="#8e8f8e" d="M 83.5,163.5 C 93.1667,163.5 102.833,163.5 112.5,163.5C 112.81,166.713 112.477,169.713 111.5,172.5C 111.5,169.833 111.5,167.167 111.5,164.5C 101.985,164.827 92.6517,164.494 83.5,163.5 Z"/></g>
<g><path style="opacity:0.481" fill="#8e8f8e" d="M 130.5,183.5 C 130.598,185.553 129.931,187.22 128.5,188.5C 128.402,186.447 129.069,184.78 130.5,183.5 Z"/></g>
<g><path style="opacity:0.502" fill="#8e8f8e" d="M 128.5,188.5 C 128.573,190.027 127.906,191.027 126.5,191.5C 126.427,189.973 127.094,188.973 128.5,188.5 Z"/></g>
<g><path style="opacity:0.471" fill="#8e8f8e" d="M 30.5,189.5 C 31.9063,189.973 32.573,190.973 32.5,192.5C 31.0937,192.027 30.427,191.027 30.5,189.5 Z"/></g>
<g><path style="opacity:0.502" fill="#8e8f8e" d="M 32.5,192.5 C 34.2624,193.262 35.2624,194.596 35.5,196.5C 33.7376,195.738 32.7376,194.404 32.5,192.5 Z"/></g>
<g><path style="opacity:0.549" fill="#8e8f8e" d="M 124.5,194.5 C 124.573,196.027 123.906,197.027 122.5,197.5C 122.427,195.973 123.094,194.973 124.5,194.5 Z"/></g>
<g><path style="opacity:0.533" fill="#8e8f8e" d="M 41.5,202.5 C 43.0269,202.427 44.0269,203.094 44.5,204.5C 42.9731,204.573 41.9731,203.906 41.5,202.5 Z"/></g>
<g><path style="opacity:0.502" fill="#8e8f8e" d="M 117.5,202.5 C 116.738,204.262 115.404,205.262 113.5,205.5C 114.262,203.738 115.596,202.738 117.5,202.5 Z"/></g>
<g><path style="opacity:0.486" fill="#8e8f8e" d="M 113.5,205.5 C 113.027,206.906 112.027,207.573 110.5,207.5C 110.973,206.094 111.973,205.427 113.5,205.5 Z"/></g>
<g><path style="opacity:0.549" fill="#8e8f8e" d="M 47.5,206.5 C 49.0269,206.427 50.0269,207.094 50.5,208.5C 48.9731,208.573 47.9731,207.906 47.5,206.5 Z"/></g>
</svg>
