<?xml version="1.0" encoding="UTF-8"?>
<!DOCTYPE svg PUBLIC "-//W3C//DTD SVG 1.1//EN" "http://www.w3.org/Graphics/SVG/1.1/DTD/svg11.dtd">
<svg xmlns="http://www.w3.org/2000/svg" version="1.1" width="300px" height="300px" style="shape-rendering:geometricPrecision; text-rendering:geometricPrecision; image-rendering:optimizeQuality; fill-rule:evenodd; clip-rule:evenodd" xmlns:xlink="http://www.w3.org/1999/xlink">
<g><path style="opacity:0.952" fill="#2c2c2c" d="M 70.5,83.5 C 90.9138,81.4699 108.414,87.4699 123,101.5C 128.734,108.86 132.234,117.193 133.5,126.5C 125.804,126.831 118.138,126.497 110.5,125.5C 102.906,108.7 89.9057,101.867 71.5,105C 56.2427,109.973 47.4094,120.473 45,136.5C 42.3112,151.969 44.6446,166.636 52,180.5C 63.3034,194.204 77.4701,198.037 94.5,192C 106.139,186.527 111.806,177.361 111.5,164.5C 102.161,164.666 92.8274,164.5 83.5,164C 83,163.5 82.5,163 82,162.5C 81.3333,157.5 81.3333,152.5 82,147.5C 82.5,147 83,146.5 83.5,146C 100.211,145.182 116.878,145.348 133.5,146.5C 137.055,164.553 133.889,181.22 124,196.5C 112.186,209.721 97.3527,216.055 79.5,215.5C 45.1768,213.68 25.6768,195.68 21,161.5C 18.0758,140.444 22.4092,121.11 34,103.5C 43.733,92.22 55.8996,85.5534 70.5,83.5 Z"/></g>
<g><path style="opacity:0.957" fill="#2c2c2c" d="M 200.5,86.5 C 226.169,86.3334 251.835,86.5 277.5,87C 278.833,93.3333 278.833,99.6667 277.5,106C 259.17,106.5 240.836,106.667 222.5,106.5C 222.5,118.167 222.5,129.833 222.5,141.5C 239.17,141.333 255.837,141.5 272.5,142C 273.476,148.076 273.81,154.242 273.5,160.5C 256.5,160.5 239.5,160.5 222.5,160.5C 222.667,176.837 222.5,193.17 222,209.5C 221.5,210 221,210.5 220.5,211C 213.782,211.795 207.116,211.628 200.5,210.5C 199.173,169.1 199.173,127.766 200.5,86.5 Z"/></g>
<g><path style="opacity:0.951" fill="#2c2c2c" d="M 153.5,87.5 C 160.422,87.1878 167.256,87.5212 174,88.5C 174.83,129.404 174.663,170.238 173.5,211C 166.586,211.811 159.752,211.645 153,210.5C 152.173,169.429 152.34,128.429 153.5,87.5 Z"/></g>
</svg>
