<?xml version="1.0" encoding="UTF-8"?>
<!DOCTYPE svg PUBLIC "-//W3C//DTD SVG 1.1//EN" "http://www.w3.org/Graphics/SVG/1.1/DTD/svg11.dtd">
<svg xmlns="http://www.w3.org/2000/svg" version="1.1" width="300px" height="300px" style="shape-rendering:geometricPrecision; text-rendering:geometricPrecision; image-rendering:optimizeQuality; fill-rule:evenodd; clip-rule:evenodd" xmlns:xlink="http://www.w3.org/1999/xlink">
<g><path style="opacity:0.994" fill="#8f8f8f" d="M 136.5,74.5 C 136.5,82.1667 136.5,89.8333 136.5,97.5C 122.99,97.1711 109.656,97.5044 96.5,98.5C 88.8976,99.567 81.5642,101.567 74.5,104.5C 72.9731,104.427 71.9731,105.094 71.5,106.5C 69.9731,106.427 68.9731,107.094 68.5,108.5C 66.2512,109.08 64.5846,110.413 63.5,112.5C 63.5,113.167 63.1667,113.5 62.5,113.5C 60.4131,114.585 59.0798,116.251 58.5,118.5C 57.0937,118.973 56.427,119.973 56.5,121.5C 55.0937,121.973 54.427,122.973 54.5,124.5C 44.4928,146.953 47.4928,167.453 63.5,186C 71.9362,193.883 81.9362,198.55 93.5,200C 108.163,200.5 122.83,200.667 137.5,200.5C 137.5,208.5 137.5,216.5 137.5,224.5C 121.163,224.667 104.83,224.5 88.5,224C 81.243,223.302 74.5763,221.136 68.5,217.5C 66.8185,215.992 64.8185,214.992 62.5,214.5C 61.5084,214.672 60.8417,214.338 60.5,213.5C 60.0269,212.094 59.0269,211.427 57.5,211.5C 57.0269,210.094 56.0269,209.427 54.5,209.5C 53.8333,209.5 53.5,209.167 53.5,208.5C 52.4154,206.413 50.7488,205.08 48.5,204.5C 47.1667,203.833 46.1667,202.833 45.5,201.5C 44.5806,198.911 42.914,196.911 40.5,195.5C 39.8333,195.5 39.5,195.167 39.5,194.5C 39.573,192.973 38.9063,191.973 37.5,191.5C 37.573,189.973 36.9063,188.973 35.5,188.5C 34.6618,188.158 34.3284,187.492 34.5,186.5C 34.0075,184.181 33.0075,182.181 31.5,180.5C 27.8642,174.424 25.6975,167.757 25,160.5C 21.8072,119.054 39.6406,91.2206 78.5,77C 81.7895,76.1184 85.1228,75.4517 88.5,75C 104.497,74.5001 120.497,74.3334 136.5,74.5 Z"/></g>
<g><path style="opacity:0.659" fill="#8e8f8e" d="M 136.5,74.5 C 137.492,82.3159 137.826,90.3159 137.5,98.5C 123.833,98.5 110.167,98.5 96.5,98.5C 109.656,97.5044 122.99,97.1711 136.5,97.5C 136.5,89.8333 136.5,82.1667 136.5,74.5 Z"/></g>
<g><path style="opacity:0.659" fill="#8e8f8e" d="M 162.5,74.5 C 162.5,82.1667 162.5,89.8333 162.5,97.5C 176.01,97.1711 189.344,97.5044 202.5,98.5C 188.833,98.5 175.167,98.5 161.5,98.5C 161.174,90.3159 161.508,82.3159 162.5,74.5 Z"/></g>
<g><path style="opacity:0.994" fill="#8f8f8f" d="M 162.5,74.5 C 178.503,74.3334 194.503,74.5001 210.5,75C 245.667,82.1667 266.833,103.333 274,138.5C 275.025,149.285 274.358,159.951 272,170.5C 271.156,174.229 269.656,177.563 267.5,180.5C 265.992,182.181 264.992,184.181 264.5,186.5C 264.672,187.492 264.338,188.158 263.5,188.5C 262.094,188.973 261.427,189.973 261.5,191.5C 260.094,191.973 259.427,192.973 259.5,194.5C 259.5,195.167 259.167,195.5 258.5,195.5C 256.086,196.911 254.419,198.911 253.5,201.5C 253.167,202.5 252.5,203.167 251.5,203.5C 248.911,204.419 246.911,206.086 245.5,208.5C 245.5,209.167 245.167,209.5 244.5,209.5C 242.973,209.427 241.973,210.094 241.5,211.5C 239.973,211.427 238.973,212.094 238.5,213.5C 238.158,214.338 237.492,214.672 236.5,214.5C 234.181,214.992 232.181,215.992 230.5,217.5C 224.424,221.136 217.757,223.302 210.5,224C 194.17,224.5 177.837,224.667 161.5,224.5C 161.5,216.5 161.5,208.5 161.5,200.5C 176.17,200.667 190.837,200.5 205.5,200C 235.937,193.554 250.77,174.72 250,143.5C 248.867,136.937 247.033,130.604 244.5,124.5C 244.573,122.973 243.906,121.973 242.5,121.5C 242.573,119.973 241.906,118.973 240.5,118.5C 239.92,116.251 238.587,114.585 236.5,113.5C 235.833,113.5 235.5,113.167 235.5,112.5C 234.415,110.413 232.749,109.08 230.5,108.5C 230.027,107.094 229.027,106.427 227.5,106.5C 227.027,105.094 226.027,104.427 224.5,104.5C 217.436,101.567 210.102,99.567 202.5,98.5C 189.344,97.5044 176.01,97.1711 162.5,97.5C 162.5,89.8333 162.5,82.1667 162.5,74.5 Z"/></g>
<g><path style="opacity:0.486" fill="#8e8f8e" d="M 74.5,104.5 C 74.0269,105.906 73.0269,106.573 71.5,106.5C 71.9731,105.094 72.9731,104.427 74.5,104.5 Z"/></g>
<g><path style="opacity:0.486" fill="#8e8f8e" d="M 224.5,104.5 C 226.027,104.427 227.027,105.094 227.5,106.5C 225.973,106.573 224.973,105.906 224.5,104.5 Z"/></g>
<g><path style="opacity:0.424" fill="#8e8f8e" d="M 71.5,106.5 C 71.0269,107.906 70.0269,108.573 68.5,108.5C 68.9731,107.094 69.9731,106.427 71.5,106.5 Z"/></g>
<g><path style="opacity:0.424" fill="#8e8f8e" d="M 227.5,106.5 C 229.027,106.427 230.027,107.094 230.5,108.5C 228.973,108.573 227.973,107.906 227.5,106.5 Z"/></g>
<g><path style="opacity:0.51" fill="#8e8f8e" d="M 68.5,108.5 C 67.4154,110.587 65.7488,111.92 63.5,112.5C 64.5846,110.413 66.2512,109.08 68.5,108.5 Z"/></g>
<g><path style="opacity:0.51" fill="#8e8f8e" d="M 230.5,108.5 C 232.749,109.08 234.415,110.413 235.5,112.5C 233.251,111.92 231.585,110.587 230.5,108.5 Z"/></g>
<g><path style="opacity:0.51" fill="#8e8f8e" d="M 62.5,113.5 C 61.9202,115.749 60.5869,117.415 58.5,118.5C 59.0798,116.251 60.4131,114.585 62.5,113.5 Z"/></g>
<g><path style="opacity:0.51" fill="#8e8f8e" d="M 236.5,113.5 C 238.587,114.585 239.92,116.251 240.5,118.5C 238.413,117.415 237.08,115.749 236.5,113.5 Z"/></g>
<g><path style="opacity:0.424" fill="#8e8f8e" d="M 58.5,118.5 C 58.573,120.027 57.9063,121.027 56.5,121.5C 56.427,119.973 57.0937,118.973 58.5,118.5 Z"/></g>
<g><path style="opacity:0.424" fill="#8e8f8e" d="M 240.5,118.5 C 241.906,118.973 242.573,119.973 242.5,121.5C 241.094,121.027 240.427,120.027 240.5,118.5 Z"/></g>
<g><path style="opacity:0.486" fill="#8e8f8e" d="M 56.5,121.5 C 56.573,123.027 55.9063,124.027 54.5,124.5C 54.427,122.973 55.0937,121.973 56.5,121.5 Z"/></g>
<g><path style="opacity:0.486" fill="#8e8f8e" d="M 242.5,121.5 C 243.906,121.973 244.573,122.973 244.5,124.5C 243.094,124.027 242.427,123.027 242.5,121.5 Z"/></g>
<g><path style="opacity:0.98" fill="#909090" d="M 99.5,136.5 C 132.833,136.5 166.167,136.5 199.5,136.5C 199.5,145.167 199.5,153.833 199.5,162.5C 166.167,162.5 132.833,162.5 99.5,162.5C 99.5,153.833 99.5,145.167 99.5,136.5 Z"/></g>
<g><path style="opacity:0.541" fill="#8e8f8e" d="M 31.5,180.5 C 33.0075,182.181 34.0075,184.181 34.5,186.5C 32.461,185.089 31.461,183.089 31.5,180.5 Z"/></g>
<g><path style="opacity:0.541" fill="#8e8f8e" d="M 267.5,180.5 C 267.539,183.089 266.539,185.089 264.5,186.5C 264.992,184.181 265.992,182.181 267.5,180.5 Z"/></g>
<g><path style="opacity:0.486" fill="#8e8f8e" d="M 35.5,188.5 C 36.9063,188.973 37.573,189.973 37.5,191.5C 36.0937,191.027 35.427,190.027 35.5,188.5 Z"/></g>
<g><path style="opacity:0.486" fill="#8e8f8e" d="M 263.5,188.5 C 263.573,190.027 262.906,191.027 261.5,191.5C 261.427,189.973 262.094,188.973 263.5,188.5 Z"/></g>
<g><path style="opacity:0.455" fill="#8e8f8e" d="M 37.5,191.5 C 38.9063,191.973 39.573,192.973 39.5,194.5C 38.0937,194.027 37.427,193.027 37.5,191.5 Z"/></g>
<g><path style="opacity:0.455" fill="#8e8f8e" d="M 261.5,191.5 C 261.573,193.027 260.906,194.027 259.5,194.5C 259.427,192.973 260.094,191.973 261.5,191.5 Z"/></g>
<g><path style="opacity:0.527" fill="#8e8f8e" d="M 40.5,195.5 C 42.914,196.911 44.5806,198.911 45.5,201.5C 43.086,200.089 41.4194,198.089 40.5,195.5 Z"/></g>
<g><path style="opacity:0.527" fill="#8e8f8e" d="M 258.5,195.5 C 257.581,198.089 255.914,200.089 253.5,201.5C 254.419,198.911 256.086,196.911 258.5,195.5 Z"/></g>
<g><path style="opacity:0.527" fill="#8e8f8e" d="M 251.5,203.5 C 250.089,205.914 248.089,207.581 245.5,208.5C 246.911,206.086 248.911,204.419 251.5,203.5 Z"/></g>
<g><path style="opacity:0.502" fill="#8e8f8e" d="M 48.5,204.5 C 50.7488,205.08 52.4154,206.413 53.5,208.5C 51.2512,207.92 49.5846,206.587 48.5,204.5 Z"/></g>
<g><path style="opacity:0.455" fill="#8e8f8e" d="M 54.5,209.5 C 56.0269,209.427 57.0269,210.094 57.5,211.5C 55.9731,211.573 54.9731,210.906 54.5,209.5 Z"/></g>
<g><path style="opacity:0.455" fill="#8e8f8e" d="M 244.5,209.5 C 244.027,210.906 243.027,211.573 241.5,211.5C 241.973,210.094 242.973,209.427 244.5,209.5 Z"/></g>
<g><path style="opacity:0.486" fill="#8e8f8e" d="M 57.5,211.5 C 59.0269,211.427 60.0269,212.094 60.5,213.5C 58.9731,213.573 57.9731,212.906 57.5,211.5 Z"/></g>
<g><path style="opacity:0.486" fill="#8e8f8e" d="M 241.5,211.5 C 241.027,212.906 240.027,213.573 238.5,213.5C 238.973,212.094 239.973,211.427 241.5,211.5 Z"/></g>
<g><path style="opacity:0.541" fill="#8e8f8e" d="M 62.5,214.5 C 64.8185,214.992 66.8185,215.992 68.5,217.5C 65.911,217.539 63.911,216.539 62.5,214.5 Z"/></g>
<g><path style="opacity:0.541" fill="#8e8f8e" d="M 236.5,214.5 C 235.089,216.539 233.089,217.539 230.5,217.5C 232.181,215.992 234.181,214.992 236.5,214.5 Z"/></g>
</svg>
