<?xml version="1.0" encoding="UTF-8"?>
<!DOCTYPE svg PUBLIC "-//W3C//DTD SVG 1.1//EN" "http://www.w3.org/Graphics/SVG/1.1/DTD/svg11.dtd">
<svg xmlns="http://www.w3.org/2000/svg" version="1.1" width="300px" height="300px" style="shape-rendering:geometricPrecision; text-rendering:geometricPrecision; image-rendering:optimizeQuality; fill-rule:evenodd; clip-rule:evenodd" xmlns:xlink="http://www.w3.org/1999/xlink">
<g><path style="opacity:0.966" fill="#2c2c2c" d="M 88.5,74.5 C 104.833,74.5 121.167,74.5 137.5,74.5C 137.5,82.5 137.5,90.5 137.5,98.5C 122.83,98.3334 108.163,98.5001 93.5,99C 71.1268,103.045 56.6268,115.878 50,137.5C 45.5857,161.959 53.7523,180.793 74.5,194C 80.51,197.003 86.8433,199.003 93.5,200C 108.163,200.5 122.83,200.667 137.5,200.5C 137.5,208.5 137.5,216.5 137.5,224.5C 121.163,224.667 104.83,224.5 88.5,224C 53.3333,216.833 32.1667,195.667 25,160.5C 21.9121,122.161 37.7455,94.9946 72.5,79C 77.8742,77.1604 83.2075,75.6604 88.5,74.5 Z"/></g>
<g><path style="opacity:0.966" fill="#2c2c2c" d="M 161.5,74.5 C 177.837,74.3334 194.17,74.5001 210.5,75C 250.678,83.6764 272.012,108.51 274.5,149.5C 272.012,190.49 250.678,215.324 210.5,224C 194.17,224.5 177.837,224.667 161.5,224.5C 161.5,216.5 161.5,208.5 161.5,200.5C 176.17,200.667 190.837,200.5 205.5,200C 226.703,196.454 240.87,184.621 248,164.5C 254.069,139.018 246.235,119.185 224.5,105C 218.49,101.997 212.157,99.9968 205.5,99C 190.837,98.5001 176.17,98.3334 161.5,98.5C 161.5,90.5 161.5,82.5 161.5,74.5 Z"/></g>
<g><path style="opacity:0.962" fill="#2b2c2b" d="M 99.5,136.5 C 132.833,136.5 166.167,136.5 199.5,136.5C 199.5,145.167 199.5,153.833 199.5,162.5C 166.167,162.5 132.833,162.5 99.5,162.5C 99.5,153.833 99.5,145.167 99.5,136.5 Z"/></g>
</svg>
