<?xml version="1.0" encoding="UTF-8"?>
<!DOCTYPE svg PUBLIC "-//W3C//DTD SVG 1.1//EN" "http://www.w3.org/Graphics/SVG/1.1/DTD/svg11.dtd">
<svg xmlns="http://www.w3.org/2000/svg" version="1.1" width="300px" height="300px" style="shape-rendering:geometricPrecision; text-rendering:geometricPrecision; image-rendering:optimizeQuality; fill-rule:evenodd; clip-rule:evenodd" xmlns:xlink="http://www.w3.org/1999/xlink">
<g><path style="opacity:0.998" fill="#8f8f8f" d="M 261.5,223.5 C 259.973,223.427 258.973,224.094 258.5,225.5C 256.507,227.163 254.174,228.33 251.5,229C 217.67,233.676 183.67,235.509 149.5,234.5C 117.047,235.339 84.7132,233.839 52.5,230C 49.135,229.495 46.135,228.328 43.5,226.5C 43.0269,225.094 42.0269,224.427 40.5,224.5C 40.0269,223.094 39.0269,222.427 37.5,222.5C 36.1667,221.833 35.1667,220.833 34.5,219.5C 33.8333,218.167 32.8333,217.167 31.5,216.5C 30.0937,216.027 29.427,215.027 29.5,213.5C 29.3404,211.847 28.6737,210.514 27.5,209.5C 25.9891,207.524 25.1558,205.191 25,202.5C 19.1098,162.81 19.4431,123.143 26,83.5C 29.4026,71.0971 37.236,62.9304 49.5,59C 58.1092,57.5072 66.7758,56.5072 75.5,56C 124.5,54 173.5,54 222.5,56C 234.526,56.1265 246.192,58.1265 257.5,62C 266.051,67.602 271.218,75.4353 273,85.5C 275.654,100.041 276.987,114.708 277,129.5C 278.557,155.667 277.224,181.667 273,207.5C 270.872,214.102 267.038,219.435 261.5,223.5 Z M 127.5,109.5 C 127.842,110.338 128.508,110.672 129.5,110.5C 130.659,112.25 132.326,113.25 134.5,113.5C 135.514,114.674 136.847,115.34 138.5,115.5C 138.973,116.906 139.973,117.573 141.5,117.5C 142.514,118.674 143.847,119.34 145.5,119.5C 145.973,120.906 146.973,121.573 148.5,121.5C 149.514,122.674 150.847,123.34 152.5,123.5C 152.973,124.906 153.973,125.573 155.5,125.5C 156.514,126.674 157.847,127.34 159.5,127.5C 159.973,128.906 160.973,129.573 162.5,129.5C 163.514,130.674 164.847,131.34 166.5,131.5C 166.973,132.906 167.973,133.573 169.5,133.5C 170.514,134.674 171.847,135.34 173.5,135.5C 173.973,136.906 174.973,137.573 176.5,137.5C 177.514,138.674 178.847,139.34 180.5,139.5C 180.973,140.906 181.973,141.573 183.5,141.5C 184.514,142.674 185.847,143.34 187.5,143.5C 187.833,144.167 188.167,144.833 188.5,145.5C 166.671,157.58 145.004,169.914 123.5,182.5C 123.167,157.824 123.5,133.158 124.5,108.5C 125.417,109.127 126.417,109.461 127.5,109.5 Z"/></g>
<g><path style="opacity:0.738" fill="#8e8f8e" d="M 127.5,109.5 C 126.417,109.461 125.417,109.127 124.5,108.5C 123.5,133.158 123.167,157.824 123.5,182.5C 122.171,157.33 122.171,131.997 123.5,106.5C 125.261,107.035 126.594,108.035 127.5,109.5 Z"/></g>
<g><path style="opacity:0.502" fill="#8e8f8e" d="M 129.5,110.5 C 131.674,110.75 133.341,111.75 134.5,113.5C 132.326,113.25 130.659,112.25 129.5,110.5 Z"/></g>
<g><path style="opacity:0.533" fill="#8e8f8e" d="M 138.5,115.5 C 140.027,115.427 141.027,116.094 141.5,117.5C 139.973,117.573 138.973,116.906 138.5,115.5 Z"/></g>
<g><path style="opacity:0.533" fill="#8e8f8e" d="M 145.5,119.5 C 147.027,119.427 148.027,120.094 148.5,121.5C 146.973,121.573 145.973,120.906 145.5,119.5 Z"/></g>
<g><path style="opacity:0.533" fill="#8e8f8e" d="M 152.5,123.5 C 154.027,123.427 155.027,124.094 155.5,125.5C 153.973,125.573 152.973,124.906 152.5,123.5 Z"/></g>
<g><path style="opacity:0.533" fill="#8e8f8e" d="M 159.5,127.5 C 161.027,127.427 162.027,128.094 162.5,129.5C 160.973,129.573 159.973,128.906 159.5,127.5 Z"/></g>
<g><path style="opacity:0.502" fill="#8e8f8e" d="M 166.5,131.5 C 168.027,131.427 169.027,132.094 169.5,133.5C 167.973,133.573 166.973,132.906 166.5,131.5 Z"/></g>
<g><path style="opacity:0.502" fill="#8e8f8e" d="M 173.5,135.5 C 175.027,135.427 176.027,136.094 176.5,137.5C 174.973,137.573 173.973,136.906 173.5,135.5 Z"/></g>
<g><path style="opacity:0.502" fill="#8e8f8e" d="M 180.5,139.5 C 182.027,139.427 183.027,140.094 183.5,141.5C 181.973,141.573 180.973,140.906 180.5,139.5 Z"/></g>
<g><path style="opacity:0.549" fill="#8e8f8e" d="M 187.5,143.5 C 190.46,144.032 190.793,144.699 188.5,145.5C 188.167,144.833 187.833,144.167 187.5,143.5 Z"/></g>
<g><path style="opacity:0.527" fill="#8e8f8e" d="M 27.5,209.5 C 28.6737,210.514 29.3404,211.847 29.5,213.5C 27.8958,212.713 27.2291,211.38 27.5,209.5 Z"/></g>
<g><path style="opacity:0.477" fill="#8e8f8e" d="M 31.5,216.5 C 32.8333,217.167 33.8333,218.167 34.5,219.5C 32.5,219.5 31.5,218.5 31.5,216.5 Z"/></g>
<g><path style="opacity:0.518" fill="#8e8f8e" d="M 37.5,222.5 C 39.0269,222.427 40.0269,223.094 40.5,224.5C 38.9731,224.573 37.9731,223.906 37.5,222.5 Z"/></g>
<g><path style="opacity:0.439" fill="#8e8f8e" d="M 261.5,223.5 C 261.027,224.906 260.027,225.573 258.5,225.5C 258.973,224.094 259.973,223.427 261.5,223.5 Z"/></g>
<g><path style="opacity:0.533" fill="#8e8f8e" d="M 40.5,224.5 C 42.0269,224.427 43.0269,225.094 43.5,226.5C 41.9731,226.573 40.9731,225.906 40.5,224.5 Z"/></g>
</svg>
