<?xml version="1.0" encoding="UTF-8"?>
<!DOCTYPE svg PUBLIC "-//W3C//DTD SVG 1.1//EN" "http://www.w3.org/Graphics/SVG/1.1/DTD/svg11.dtd">
<svg xmlns="http://www.w3.org/2000/svg" version="1.1" width="300px" height="300px" style="shape-rendering:geometricPrecision; text-rendering:geometricPrecision; image-rendering:optimizeQuality; fill-rule:evenodd; clip-rule:evenodd" xmlns:xlink="http://www.w3.org/1999/xlink">
<g><path style="opacity:0.99" fill="#2c2c2c" d="M 96.5,54.5 C 138.514,54.1335 180.514,54.6335 222.5,56C 231.565,56.4248 240.565,57.4248 249.5,59C 259.424,61.9216 266.591,68.0883 271,77.5C 273.69,87.3273 275.356,97.3273 276,107.5C 277.354,130.487 277.688,153.487 277,176.5C 276.405,186.93 275.071,197.263 273,207.5C 268.441,220.061 259.608,227.561 246.5,230C 214.283,233.839 181.95,235.339 149.5,234.5C 119.095,235.047 88.762,233.88 58.5,231C 42.8606,229.615 32.0273,221.782 26,207.5C 20.7445,172.584 19.7445,137.584 23,102.5C 23.7001,93.9646 25.3667,85.6313 28,77.5C 35.5984,63.6112 47.4317,56.7778 63.5,57C 74.6593,56.2111 85.6593,55.3777 96.5,54.5 Z M 123.5,108.5 C 145.436,120.136 167.102,132.303 188.5,145C 166.918,157.374 145.418,169.874 124,182.5C 123.5,157.836 123.333,133.169 123.5,108.5 Z"/></g>
</svg>
